<?xml version="1.0" standalone="no"?>
<!DOCTYPE svg PUBLIC "-//W3C//DTD SVG 20010904//EN"
 "http://www.w3.org/TR/2001/REC-SVG-20010904/DTD/svg10.dtd">
<svg version="1.0" xmlns="http://www.w3.org/2000/svg"
 width="400.000000pt" height="400.000000pt" viewBox="0 0 400.000000 400.000000"
 preserveAspectRatio="xMidYMid meet">

<g transform="translate(0.000000,400.000000) scale(0.100000,-0.100000)"
fill="#000000" stroke="none">
<path d="M1842 3518 c-11 -14 -15 -33 -13 -57 1 -11 4 -11 16 -1 12 10 21 10
45 0 24 -10 36 -10 60 0 32 13 40 30 15 30 -9 0 -33 9 -55 20 -46 23 -54 24
-68 8z"/>
<path d="M1993 3332 c-12 -8 -25 -68 -28 -139 -4 -72 -44 -153 -111 -223 -54
-57 -56 -60 -31 -60 20 0 27 -5 27 -20 0 -11 7 -20 15 -20 9 0 15 9 15 25 0
33 46 47 67 20 12 -17 13 -17 13 -2 0 13 9 17 33 17 54 0 76 -10 79 -36 4 -35
22 -33 28 2 6 32 17 23 29 -24 5 -18 2 -31 -11 -44 -23 -23 -28 -23 -28 0 -1
16 -1 16 -14 0 -7 -10 -20 -18 -29 -18 -8 0 -18 8 -20 18 -4 16 -5 16 -6 0 -1
-13 -10 -18 -30 -18 -20 0 -31 6 -35 18 -3 10 -4 6 -3 -8 2 -23 7 -25 70 -32
38 -3 75 -9 83 -12 19 -7 21 -186 1 -186 -9 0 -11 -12 -9 -40 3 -26 9 -40 18
-40 15 0 16 2 14 167 -1 109 0 112 24 129 21 13 26 24 26 60 0 25 5 44 11 44
6 0 -1 14 -16 31 -49 60 -155 306 -155 363 0 27 -10 38 -27 28z"/>
<path d="M2503 2937 c2 -6 24 -16 50 -23 40 -10 47 -10 47 2 0 16 -8 20 -63
28 -26 3 -37 1 -34 -7z"/>
<path d="M1386 2864 c-3 -9 -6 -17 -6 -18 0 -5 71 1 76 7 4 4 -5 11 -20 17
-36 13 -43 13 -50 -6z"/>
<path d="M2476 2737 c-9 -45 -20 -89 -24 -97 -7 -17 -9 -28 -11 -51 0 -9 -20
-38 -43 -64 l-43 -48 42 5 c27 4 44 2 47 -6 3 -7 5 -7 5 2 1 16 101 17 101 0
0 -9 3 -9 11 -1 17 17 39 4 39 -23 0 -22 -3 -23 -47 -19 -27 3 -42 3 -35 -1 6
-3 12 -16 12 -29 0 -16 7 -25 25 -29 25 -6 25 -7 25 -117 l0 -111 -32 2 c-18
1 -58 1 -88 0 -53 -3 -53 -3 23 -10 42 -4 84 -13 92 -20 13 -11 15 3 15 116 1
93 5 136 15 154 8 14 14 39 15 57 0 17 5 33 10 35 6 2 -5 25 -24 51 -36 50
-96 201 -101 250 -4 48 -10 38 -29 -46z m84 -327 c0 -5 -4 -10 -10 -10 -5 0
-10 5 -10 10 0 6 5 10 10 10 6 0 10 -4 10 -10z"/>
<path d="M1486 2800 c-3 -8 -10 -53 -16 -100 -15 -111 -38 -164 -87 -192 -31
-19 -34 -23 -18 -27 11 -2 23 -8 27 -15 5 -7 8 -5 8 5 0 20 70 35 81 18 4 -7
9 -8 13 -1 9 15 56 2 56 -17 1 -14 2 -14 11 2 8 13 14 15 29 7 10 -5 25 -7 34
-4 12 5 8 15 -19 53 -42 58 -70 122 -94 215 -11 39 -22 64 -25 56z"/>
<path d="M815 2620 c3 -5 8 -10 11 -10 2 0 4 5 4 10 0 6 -5 10 -11 10 -5 0 -7
-4 -4 -10z"/>
<path d="M657 2594 c-4 -4 -7 -17 -7 -28 0 -19 6 -21 55 -21 41 0 59 5 74 20
l20 20 -37 2 c-20 0 -51 4 -67 8 -17 4 -33 3 -38 -1z"/>
<path d="M3230 2590 c0 -4 9 -15 21 -25 14 -14 38 -20 85 -21 67 -2 79 6 42
30 -23 14 -148 28 -148 16z"/>
<path d="M2012 2555 c0 -16 2 -22 5 -12 2 9 2 23 0 30 -3 6 -5 -1 -5 -18z"/>
<path d="M1845 2542 c3 -7 5 -18 5 -23 0 -4 7 -6 15 -3 23 9 19 40 -5 40 -13
0 -19 -5 -15 -14z"/>
<path d="M2172 2522 l-2 -43 -92 5 c-51 3 -79 3 -63 0 17 -2 47 -9 68 -14 45
-13 51 -40 8 -40 -17 0 -33 -4 -36 -10 -9 -14 -62 -12 -68 3 -4 7 -6 6 -6 -4
-1 -11 10 -19 34 -23 58 -11 65 -32 65 -193 0 -78 -5 -177 -12 -220 -11 -74
-12 -76 -22 -45 -7 26 -6 36 5 43 9 6 -1 9 -31 9 -76 0 -90 -8 -90 -46 0 -27
-4 -34 -20 -34 -16 0 -20 7 -20 38 l-1 37 -19 -39 c-11 -21 -31 -54 -45 -72
-14 -19 -22 -34 -18 -34 4 -1 81 -2 170 -3 108 -1 166 -6 174 -14 8 -8 10 -76
7 -247 l-3 -236 22 0 c19 0 23 -5 23 -30 0 -38 18 -40 22 -2 2 21 9 28 31 30
24 3 27 0 27 -27 0 -40 27 -42 32 -3 2 19 9 28 26 30 19 3 22 -1 22 -27 0 -17
5 -31 10 -31 6 0 10 27 10 60 0 56 2 61 28 72 34 15 158 15 195 0 l27 -12 0
-460 c0 -413 2 -460 16 -460 14 0 15 15 12 115 -1 63 -2 115 0 115 10 0 75
-38 124 -72 48 -34 59 -38 77 -28 12 6 21 15 21 20 0 21 62 77 99 90 35 11 41
17 41 41 l0 28 -72 -44 c-119 -74 -179 -72 -195 7 -12 54 -6 299 7 350 6 21
20 43 33 49 12 7 76 14 142 17 165 7 111 20 -92 21 -89 1 -168 4 -177 7 -12 5
-16 21 -16 65 0 33 4 59 10 59 6 0 10 -13 10 -30 0 -18 5 -30 13 -30 9 0 12
10 9 30 -4 27 -1 30 22 30 22 0 26 -4 26 -30 0 -21 5 -30 16 -30 10 0 14 6 10
15 -10 26 5 45 35 45 26 0 29 -4 29 -30 0 -16 4 -30 9 -30 4 0 6 11 4 24 -6
28 5 37 35 29 15 -3 22 -13 22 -29 0 -13 5 -24 10 -24 6 0 10 14 10 31 0 24 3
30 16 25 9 -3 20 -6 25 -6 5 0 9 -11 9 -25 0 -16 6 -25 15 -25 9 0 15 9 15 25
0 20 5 25 25 25 20 0 25 5 25 24 0 31 -24 35 -237 38 -117 2 -163 6 -163 15 0
6 9 15 21 18 17 6 20 13 15 36 -4 22 -2 29 10 29 9 0 14 6 12 12 -7 19 -76 37
-143 36 l-60 0 65 -13 c85 -16 100 -23 100 -47 0 -18 -4 -19 -37 -13 -82 17
-217 3 -293 -29 -12 -5 -15 7 -17 72 -3 76 -2 79 23 90 37 17 54 15 54 -8 0
-11 5 -20 11 -20 6 0 8 16 5 43 -3 23 -8 83 -12 132 -3 50 -11 93 -17 97 -9 5
-9 10 1 20 15 15 16 32 1 22 -8 -5 -8 -1 0 14 9 16 7 21 -9 25 -15 4 -20 0
-20 -13 0 -12 -8 -20 -22 -22 -20 -3 -23 -10 -26 -48 -6 -107 -54 -320 -72
-320 -11 0 -19 59 -22 175 -3 87 -2 90 19 90 13 0 28 6 35 13 9 9 4 12 -25 12
l-37 0 0 44 c0 24 -4 46 -9 48 -6 2 -13 67 -17 146 l-7 142 69 0 c91 1 105 11
96 76 -5 35 -12 50 -25 52 -13 3 -17 -3 -17 -27 0 -24 -4 -31 -19 -31 -15 0
-21 8 -23 33 -3 30 -6 32 -45 35 -42 3 -43 2 -43 -28 0 -25 -4 -31 -17 -28
-15 3 -19 16 -21 69 -3 66 7 90 38 101 7 2 10 29 7 73 -2 41 -4 52 -5 27z m-5
-557 c3 -9 3 -18 0 -21 -6 -7 -47 18 -47 28 0 15 41 8 47 -7z"/>
<path d="M810 2433 c-4 -77 -12 -155 -30 -278 -11 -82 -23 -167 -24 -188 -3
-33 -14 -49 -70 -102 -36 -35 -66 -66 -66 -70 0 -8 118 2 132 11 4 3 11 -2 15
-11 5 -16 7 -16 15 -1 13 23 78 22 78 -1 0 -13 3 -14 12 -5 14 14 88 16 88 2
0 -5 6 -7 13 -5 6 3 19 0 27 -5 12 -7 13 -13 4 -27 -10 -15 -23 -17 -78 -15
-39 2 -66 -1 -66 -7 0 -5 12 -11 28 -13 19 -2 28 -9 30 -25 2 -14 11 -23 25
-25 26 -4 36 -46 15 -59 -7 -5 -47 -9 -88 -10 -41 0 -97 -4 -125 -9 -47 -7
-44 -7 35 -9 47 -1 110 -8 140 -16 30 -8 62 -15 70 -15 15 0 27 31 46 113 4
16 13 31 20 34 8 3 14 17 14 33 0 15 9 35 19 44 19 17 19 19 -20 69 -88 114
-239 470 -239 563 0 19 -4 34 -10 34 -5 0 -10 -3 -10 -7z m-10 -443 c0 -11 -4
-20 -10 -20 -5 0 -10 9 -10 20 0 11 5 20 10 20 6 0 10 -9 10 -20z"/>
<path d="M1548 2424 c31 -11 42 -21 43 -37 1 -20 2 -20 8 3 10 33 5 38 -49 45
l-45 5 43 -16z"/>
<path d="M3216 2431 c-4 -5 -3 -16 0 -24 3 -8 0 -35 -7 -58 -6 -24 -29 -118
-49 -209 -52 -224 -55 -235 -72 -259 -25 -36 -90 -81 -116 -81 -18 0 -23 -3
-16 -10 7 -7 27 -7 57 -1 39 7 49 6 57 -8 9 -15 9 -15 10 0 0 24 61 32 78 11
11 -14 12 -14 12 1 0 12 8 17 30 17 22 0 30 -5 30 -17 1 -16 2 -16 10 -2 11
18 60 14 60 -5 0 -7 3 -6 9 2 11 19 64 5 57 -15 -3 -8 -6 -21 -6 -29 0 -11
-25 -14 -127 -15 -125 -2 -126 -2 -47 -9 89 -8 108 -15 100 -36 -4 -9 4 -19
20 -26 17 -8 24 -18 22 -32 -3 -19 -12 -21 -108 -27 -58 -3 -122 -9 -142 -14
-60 -12 -33 -26 37 -19 147 15 165 -7 143 -176 -14 -104 -14 -110 3 -110 27 0
32 -18 7 -22 -19 -2 -24 -11 -30 -53 -14 -103 -24 -205 -18 -205 3 0 4 -60 2
-134 l-4 -134 44 -20 c24 -10 49 -26 57 -35 18 -23 96 -24 87 -2 -11 30 -45
331 -57 508 -13 191 -8 389 10 395 5 2 13 30 17 63 4 32 11 59 15 59 5 0 9 16
9 35 0 23 6 39 19 47 17 11 17 13 -14 54 -18 24 -48 80 -65 126 -46 119 -101
343 -103 416 -1 58 -8 75 -21 53z"/>
<path d="M1511 2331 c65 -20 69 -26 69 -107 0 -66 -2 -75 -17 -73 -47 4 -57
-3 -23 -16 19 -7 40 -14 45 -14 6 -1 10 42 10 109 l0 110 -55 -1 c-42 -1 -49
-3 -29 -8z"/>
<path d="M1981 2314 c0 -11 3 -14 6 -6 3 7 2 16 -1 19 -3 4 -6 -2 -5 -13z"/>
<path d="M2530 2290 c0 -16 5 -30 10 -30 6 0 10 14 10 30 0 17 -4 30 -10 30
-5 0 -10 -13 -10 -30z"/>
<path d="M1758 2303 c-12 -3 -18 -14 -18 -34 0 -22 -5 -29 -20 -29 -15 0 -20
7 -20 29 0 24 -4 28 -19 24 -23 -6 -47 -103 -28 -115 15 -9 56 -10 136 -2 l61
7 0 38 c0 22 -4 39 -9 39 -5 0 -12 11 -15 25 -6 25 -24 30 -68 18z"/>
<path d="M1717 2108 c-3 -8 4 -13 18 -13 14 0 21 5 18 13 -3 6 -11 12 -18 12
-7 0 -15 -6 -18 -12z"/>
<path d="M2232 2108 c-7 -7 -12 -16 -12 -22 0 -6 5 -5 11 1 6 6 19 9 28 5 14
-5 14 -4 2 11 -16 20 -14 20 -29 5z"/>
<path d="M1979 2093 c0 -10 -2 -26 -4 -35 -2 -10 1 -20 6 -24 5 -3 9 13 9 35
0 40 -9 59 -11 24z"/>
<path d="M2628 2083 c-5 -19 -12 -20 -79 -17 -69 3 -71 2 -35 -8 l38 -12 -68
-17 -69 -17 52 -1 c77 -2 83 -6 83 -61 0 -27 5 -52 10 -55 15 -10 12 -45 -5
-45 -9 0 -12 -6 -9 -15 4 -9 0 -15 -10 -15 -12 0 -16 -10 -16 -39 0 -33 4 -40
22 -43 31 -4 35 -28 5 -28 -19 0 -26 -6 -31 -31 -10 -50 -7 -69 9 -69 9 0 15
-9 16 -22 l0 -23 11 23 c6 12 14 22 17 22 15 -1 29 -17 32 -39 2 -14 9 -26 14
-28 7 -2 9 74 7 220 -3 214 -2 224 17 242 24 21 27 53 8 80 -13 17 -14 17 -19
-2z m-28 -119 c0 -9 -7 -14 -17 -12 -25 5 -28 28 -4 28 12 0 21 -6 21 -16z
m-30 -185 c0 -10 -7 -19 -15 -19 -15 0 -21 31 -9 43 11 10 24 -3 24 -24z"/>
<path d="M1712 2040 c0 -19 2 -27 5 -17 2 9 2 25 0 35 -3 9 -5 1 -5 -18z"/>
<path d="M1752 2040 c0 -19 2 -27 5 -17 2 9 2 25 0 35 -3 9 -5 1 -5 -18z"/>
<path d="M2220 2030 c0 -33 3 -40 20 -40 11 0 20 5 20 11 0 5 -4 7 -10 4 -6
-4 -10 8 -10 29 0 20 -4 36 -10 36 -5 0 -10 -18 -10 -40z"/>
<path d="M1527 2049 c74 -14 79 -26 11 -22 l-63 2 58 -15 c46 -13 60 -14 72
-4 8 7 15 16 15 20 0 13 -60 30 -99 29 l-36 -1 42 -9z"/>
<path d="M1725 1939 c-4 -6 -4 -13 0 -17 3 -3 10 0 15 8 7 10 10 11 10 3 0 -7
4 -13 10 -13 5 0 7 7 4 15 -7 17 -30 20 -39 4z"/>
<path d="M2227 1933 c-12 -12 -7 -19 13 -19 11 0 20 6 20 13 0 14 -22 18 -33
6z"/>
<path d="M1750 1858 c0 -38 3 -49 10 -38 13 20 13 77 0 85 -6 4 -10 -14 -10
-47z"/>
<path d="M1720 1855 c0 -25 5 -45 10 -45 6 0 10 20 10 45 0 25 -4 45 -10 45
-5 0 -10 -20 -10 -45z"/>
<path d="M2221 1853 c-1 -24 4 -43 9 -43 12 0 12 24 0 60 -7 21 -8 19 -9 -17z"/>
<path d="M2253 1850 c0 -25 2 -35 4 -22 2 12 2 32 0 45 -2 12 -4 2 -4 -23z"/>
<path d="M1728 1783 c12 -2 30 -2 40 0 9 3 -1 5 -23 4 -22 0 -30 -2 -17 -4z"/>
<path d="M1970 1745 c-17 -21 -4 -32 20 -17 14 9 20 9 23 -1 2 -7 8 -9 12 -5
10 9 -13 38 -30 38 -7 0 -18 -7 -25 -15z"/>
<path d="M1958 1659 c-2 -41 0 -49 15 -49 14 0 17 9 17 44 0 28 -5 46 -14 49
-11 4 -15 -6 -18 -44z"/>
<path d="M2010 1656 c0 -25 5 -48 10 -51 6 -4 10 13 10 44 0 28 -4 51 -10 51
-5 0 -10 -20 -10 -44z"/>
<path d="M780 1640 c0 -20 5 -30 15 -30 10 0 15 10 15 30 0 20 -5 30 -15 30
-10 0 -15 -10 -15 -30z"/>
<path d="M874 1656 c-8 -22 3 -49 19 -43 6 2 12 14 12 27 0 27 -22 39 -31 16z"/>
<path d="M3160 1635 c0 -16 6 -25 15 -25 9 0 15 9 15 25 0 16 -6 25 -15 25 -9
0 -15 -9 -15 -25z"/>
<path d="M3250 1634 c0 -31 23 -28 28 4 2 15 -2 22 -12 22 -11 0 -16 -9 -16
-26z"/>
<path d="M1371 1564 c0 -11 3 -14 6 -6 3 7 2 16 -1 19 -3 4 -6 -2 -5 -13z"/>
<path d="M1580 1550 c0 -6 7 -10 15 -10 8 0 15 2 15 4 0 2 -7 6 -15 10 -8 3
-15 1 -15 -4z"/>
<path d="M1520 1510 c72 -17 106 -27 127 -38 28 -15 33 -15 33 1 0 18 -96 47
-151 46 l-44 -1 35 -8z"/>
<path d="M820 1451 c0 -24 5 -41 14 -44 20 -8 26 2 26 45 0 31 -3 38 -20 38
-17 0 -20 -7 -20 -39z"/>
<path d="M3190 1446 c0 -30 4 -36 21 -36 17 0 20 5 17 32 -2 22 -9 34 -20 36
-15 3 -18 -4 -18 -32z"/>
<path d="M1405 1449 c-27 -4 -61 -11 -73 -16 -21 -8 -22 -11 -8 -22 12 -10 22
-10 50 0 19 7 32 17 29 22 -8 13 70 3 143 -19 l54 -15 0 -460 c0 -444 1 -459
19 -459 10 0 22 7 25 16 3 8 10 12 16 9 5 -3 10 1 10 9 0 9 7 16 15 16 12 0
15 16 14 88 -1 48 -4 78 -7 66 -9 -27 -55 -94 -64 -94 -7 0 -12 627 -5 632 1
1 173 5 382 8 l380 6 -383 2 -384 2 7 43 c9 51 12 57 31 57 10 0 14 12 14 39
0 37 -2 40 -42 56 -47 17 -146 24 -223 14z m283 -904 c-2 -2 -15 -6 -31 -10
-36 -10 -36 15 1 69 l27 40 3 -48 c2 -27 2 -50 0 -51z"/>
<path d="M1941 1425 c-17 -20 -31 -40 -31 -45 0 -4 -3 -15 -6 -24 -3 -9 -2
-16 4 -16 5 0 13 10 17 23 7 21 8 20 14 -8 l7 -30 7 30 c22 89 48 107 86 59
12 -15 21 -22 21 -17 0 18 -49 63 -68 63 -11 0 -34 -16 -51 -35z"/>
<path d="M1190 1373 c-30 -1 -83 -5 -117 -9 -59 -5 -63 -7 -63 -30 0 -20 4
-25 23 -22 18 2 23 -2 25 -24 2 -16 7 -28 12 -28 5 0 10 12 12 28 2 21 9 28
31 30 24 3 27 0 27 -27 0 -38 18 -41 22 -3 2 21 8 27 28 27 18 0 26 -6 28 -22
5 -31 22 -29 22 2 0 20 5 25 25 25 20 0 25 -5 25 -25 0 -14 5 -25 10 -25 6 0
10 11 10 25 0 18 5 25 20 25 16 0 20 7 20 30 0 33 6 32 -160 23z"/>
<path d="M1466 1251 c-3 -5 1 -12 10 -15 20 -8 29 -1 19 13 -8 13 -22 14 -29
2z"/>
<path d="M2492 1248 c-18 -18 -14 -32 5 -17 9 8 18 13 20 12 1 -2 3 0 4 4 1
13 -16 14 -29 1z"/>
<path d="M1460 1178 c0 -36 4 -48 15 -48 20 0 20 50 0 76 -13 18 -14 15 -15
-28z"/>
<path d="M2500 1170 c0 -29 4 -40 15 -40 11 0 15 11 15 40 0 29 -4 40 -15 40
-11 0 -15 -11 -15 -40z"/>
<path d="M2482 1160 c0 -19 2 -27 5 -17 2 9 2 25 0 35 -3 9 -5 1 -5 -18z"/>
<path d="M1502 1155 c0 -16 2 -22 5 -12 2 9 2 23 0 30 -3 6 -5 -1 -5 -18z"/>
<path d="M1968 1093 c7 -3 16 -2 19 1 4 3 -2 6 -13 5 -11 0 -14 -3 -6 -6z"/>
<path d="M1893 1063 c-65 -44 -124 -130 -123 -175 1 -7 10 9 20 36 22 57 57
97 119 137 25 16 40 29 34 29 -5 0 -28 -12 -50 -27z"/>
<path d="M1935 1043 c-75 -39 -124 -107 -144 -201 -14 -67 -15 -282 -1 -282 6
0 89 0 185 0 96 0 186 0 200 0 l25 0 0 133 c0 196 -27 270 -124 335 -54 36
-94 40 -141 15z"/>
<path d="M1762 845 c0 -16 2 -22 5 -12 2 9 2 23 0 30 -3 6 -5 -1 -5 -18z"/>
<path d="M1754 680 c0 -69 1 -97 3 -62 2 34 2 90 0 125 -2 34 -3 6 -3 -63z"/>
<path d="M2281 648 c-1 -94 4 -118 25 -118 8 0 14 -7 14 -15 0 -8 9 -15 21
-15 11 0 17 -4 14 -10 -3 -5 1 -10 9 -10 26 0 18 36 -9 48 -14 7 -32 12 -40
12 -11 0 -15 13 -15 47 l0 47 40 -39 c22 -21 40 -34 40 -27 0 7 -4 12 -8 12
-14 0 -70 84 -80 121 -9 29 -10 22 -11 -53z"/>
</g>
</svg>
